HIERARCHY
ROOT Hips
{
	OFFSET 0.00 0.00 0.00
	CHANNELS 6 Xposition Yposition Zposition Xrotation Yrotation Zrotation
	JOINT RightUpLeg
	{
		OFFSET -3.76699 0.00000 0.00000
		CHANNELS 3 Xrotation Yrotation Zrotation
		JOINT RightLeg
		{
			OFFSET 0.00000 -18.01768 0.00000
			CHANNELS 3 Xrotation Yrotation Zrotation
			JOINT RightFoot
			{
				OFFSET 0.00000 -16.88108 0.00000
				CHANNELS 3 Xrotation Yrotation Zrotation
				JOINT RightToeBase
				{
					OFFSET 0.00000 -1.49359 5.57418
					CHANNELS 3 Xrotation Yrotation Zrotation
					End Site
					{
						OFFSET 0.00000 0.00000 2.95275
					}
				}
			}
		}
	}
	JOINT LeftUpLeg
	{
		OFFSET 3.76699 0.00000 0.00000
		CHANNELS 3 Xrotation Yrotation Zrotation
		JOINT LeftLeg
		{
			OFFSET 0.00000 -18.01768 0.00000
			CHANNELS 3 Xrotation Yrotation Zrotation
			JOINT LeftFoot
			{
				OFFSET 0.00000 -16.88108 0.00000
				CHANNELS 3 Xrotation Yrotation Zrotation
				JOINT LeftToeBase
				{
					OFFSET 0.00000 -1.49359 5.57418
					CHANNELS 3 Xrotation Yrotation Zrotation
					End Site
					{
						OFFSET 0.00000 0.00000 2.95275
					}
				}
			}
		}
	}
	JOINT Spine
	{
		OFFSET 0.00000 7.77970 0.00000
		CHANNELS 3 Xrotation Yrotation Zrotation
		JOINT RightShoulder
		{
			OFFSET 0.00000 10.94176 0.00000
			CHANNELS 3 Xrotation Yrotation Zrotation
			JOINT RightArm
			{
				OFFSET -7.70894 0.00000 0.00000
				CHANNELS 3 Xrotation Yrotation Zrotation
				JOINT RightForeArm
				{
					OFFSET -11.52135 0.00000 0.00000
					CHANNELS 3 Yrotation Zrotation Xrotation
					JOINT RightHand
					{
						OFFSET -10.17590 0.00000 0.00000
						CHANNELS 3 Xrotation Yrotation Zrotation
						End Site
						{
							OFFSET -3.93700 0.00000 0.00000
						}
						JOINT RightHandThumb1
						{
							OFFSET 0.00000 0.00000 0.00000
							CHANNELS 3 Xrotation Zrotation Yrotation
							End Site
							{
								OFFSET 0.00000 0.00000 3.93700
							}
						}
					}
				}
			}
		}
		JOINT LeftShoulder
		{
			OFFSET 0.00000 10.94176 0.00000
			CHANNELS 3 Xrotation Yrotation Zrotation
			JOINT LeftArm
			{
				OFFSET 7.70894 0.00000 0.00000
				CHANNELS 3 Xrotation Yrotation Zrotation
				JOINT LeftForeArm
				{
					OFFSET 11.52135 0.00000 0.00000
					CHANNELS 3 Yrotation Zrotation Xrotation
					JOINT LeftHand
					{
						OFFSET 10.17590 0.00000 0.00000
						CHANNELS 3 Xrotation Yrotation Zrotation
						End Site
						{
							OFFSET 3.93700 0.00000 0.00000
						}
						JOINT LeftHandThumb1
						{
							OFFSET 0.00000 0.00000 0.00000
							CHANNELS 3 Xrotation Zrotation Yrotation
							End Site
							{
								OFFSET 0.00000 0.00000 3.93700
							}
						}
					}
				}
			}
		}
		JOINT Head
		{
			OFFSET 0.00000 16.64604 0.00000
			CHANNELS 3 Xrotation Yrotation Zrotation
			End Site
			{
				OFFSET 0.00000 4.52755 0.00000
			}
		}
	}
}
MOTION
Frames: 18
Frame Time: 0.008333
 2.8952 37.2515 0.3897 -23.2417 -10.4532 -14.1707 -56.6820 -2.1292 -46.6082 128.0942 0.0000 0.0000 9.2281 -16.9314 9.8447 3.9073 0.0000 -0.0000 23.4173 5.7107 -1.1097 14.5533 0.0000 0.0000 -18.4793 24.4059 -1.4114 4.2170 0.0000 -0.0000 32.4496 -2.6683 -9.5088 23.8893 5.7355 -8.8748 -17.8620 49.8713 66.0727 103.4343 -0.0000 179.0029 128.9216 -74.8131 -52.0700 32.8623 0.0000 -24.3270 21.9989 17.5864 10.7463 -70.3335 -20.9763 -57.5158 -100.0870 -0.0000 64.9170 11.2730 24.0045 -26.1041 33.1476 -0.0000 26.2537 -3.9045 14.3376 15.9161
 2.9000 37.2444 0.3691 -23.1324 -10.4376 -14.0332 -56.7601 -2.2826 -46.6266 127.0545 0.0000 -0.0000 7.0064 -17.8361 8.6326 3.9385 0.0000 0.0000 23.2573 5.7558 -1.1743 14.6159 0.0000 -0.0000 -18.4967 24.2894 -1.5351 4.3261 0.0000 -0.0000 32.3696 -2.6720 -9.7350 23.8910 5.7532 -8.8492 -17.8672 49.7911 66.0986 103.3795 -0.0000 178.9990 128.9471 -74.9088 -52.0321 32.8623 0.0000 -24.3270 21.9389 17.5661 10.9039 -70.3106 -21.1567 -57.5518 -100.2239 -0.0000 64.9535 11.2406 24.0744 -25.9756 33.1476 -0.0000 26.2537 -3.9173 14.2162 16.0743
 2.9020 37.2361 0.3516 -23.0495 -10.4396 -13.8834 -56.8237 -2.3777 -46.6361 126.1952 -0.0000 -0.0000 5.0389 -18.6385 7.4522 3.3795 -0.0000 -0.0000 23.1289 5.8107 -1.2636 14.6760 0.0000 -0.0000 -18.5035 24.1792 -1.6220 4.3325 0.0000 0.0000 32.2978 -2.6773 -10.0071 23.8754 5.7660 -8.8075 -17.8829 49.7695 66.1328 103.3179 -0.0000 179.0012 128.7408 -74.8439 -52.2453 32.8623 0.0000 -24.3270 21.8769 17.5572 11.0744 -70.3252 -21.3121 -57.5921 -100.3105 -0.0000 64.9845 11.2407 23.9073 -26.1240 33.1476 -0.0000 26.2537 -3.9153 14.0904 16.2465
 2.9000 37.2287 0.3329 -22.9840 -10.4448 -13.7240 -56.8507 -2.4116 -46.6397 125.5104 0.0000 0.0000 3.3633 -19.2264 6.5632 2.9633 0.0000 -0.0000 23.0172 5.8570 -1.3589 14.7300 0.0000 0.0000 -18.5186 24.0657 -1.7111 4.5184 0.0000 -0.0000 32.2352 -2.6985 -10.3278 23.8388 5.8064 -8.7377 -17.8906 49.7779 66.1645 103.2584 -0.0000 179.0514 128.4583 -74.8009 -52.5311 32.8623 0.0000 -24.3270 21.7891 17.5421 11.2647 -70.3587 -21.4759 -57.6133 -100.3535 -0.0000 64.9237 11.3216 23.9440 -26.2582 33.1476 -0.0000 26.2537 -3.8614 13.8811 16.3928
 2.8942 37.2220 0.3184 -22.9621 -10.4302 -13.5847 -56.8271 -2.4331 -46.6540 125.0161 -0.0000 0.0000 2.0989 -19.5498 6.0366 2.5125 0.0000 -0.0000 22.9691 5.9028 -1.4388 14.7665 -0.0000 -0.0000 -18.5261 23.9712 -1.8479 4.5520 -0.0000 -0.0000 32.2195 -2.7511 -10.6188 23.7474 5.8405 -8.6817 -17.9134 49.8313 66.2446 103.1882 -0.0000 179.0665 128.5647 -74.8646 -52.4173 32.8623 0.0000 -24.3270 21.5991 17.5096 11.4453 -70.2972 -21.6537 -57.5997 -100.3315 -0.0000 65.0748 11.3356 24.0411 -26.2006 33.1476 -0.0000 26.2537 -3.8525 13.7994 16.5622
 2.8860 37.2147 0.3077 -22.9829 -10.4403 -13.4512 -56.7601 -2.3967 -46.6374 124.7205 0.0000 -0.0000 1.2718 -19.5301 5.6187 2.3038 0.0000 -0.0000 22.9816 5.9617 -1.5356 14.7774 -0.0000 -0.0000 -18.5319 23.8788 -1.9489 4.6435 0.0000 0.0000 32.2368 -2.7938 -10.9144 23.6867 5.8570 -8.6609 -18.0268 49.9212 66.3823 103.1139 -0.0000 179.0489 128.5255 -74.8595 -52.4568 32.8623 0.0000 -24.3270 21.4107 17.4572 11.6161 -70.2432 -21.7635 -57.5573 -100.2955 -0.0000 65.1287 11.3442 23.9416 -26.3069 33.1476 -0.0000 26.2537 -3.9019 13.8509 16.7764
 2.8736 37.2094 0.2991 -23.0125 -10.4527 -13.3250 -56.6811 -2.3413 -46.5942 124.5861 0.0000 -0.0000 0.9393 -19.3986 5.4124 1.9029 0.0000 0.0000 23.0163 6.0048 -1.6252 14.7651 0.0000 -0.0000 -18.5288 23.8024 -2.0832 4.7243 0.0000 0.0000 32.2372 -2.8635 -11.2316 23.6628 5.9050 -8.6131 -18.1493 50.0274 66.4835 103.0523 -0.0000 179.0492 128.5979 -74.9008 -52.3796 32.8623 0.0000 -24.3270 21.3140 17.4441 11.7433 -70.3073 -21.8692 -57.5278 -100.2039 -0.0000 65.1853 11.3301 23.8427 -26.3666 33.1476 -0.0000 26.2537 -3.8223 13.6848 16.8479
 2.8584 37.2064 0.2930 -23.0770 -10.4465 -13.2255 -56.5574 -2.2929 -46.5220 124.6195 0.0000 -0.0000 1.0146 -19.1716 5.4502 1.9816 -0.0000 0.0000 23.1003 6.0091 -1.6958 14.7332 -0.0000 0.0000 -18.5153 23.7766 -2.1967 4.8917 -0.0000 0.0000 32.2800 -2.9323 -11.5133 23.6305 5.9374 -8.5840 -18.2974 50.1571 66.6157 102.9938 -0.0000 179.0577 128.6771 -74.9018 -52.3009 32.8623 0.0000 -24.3270 21.2973 17.4253 11.8350 -70.4471 -21.9470 -57.4825 -100.1110 -0.0000 65.1436 11.3621 23.8438 -26.4316 33.1476 -0.0000 26.2537 -3.8013 13.6330 16.9527
 2.8404 37.2059 0.2894 -23.1584 -10.4227 -13.1672 -56.4012 -2.2697 -46.4270 124.7864 0.0000 0.0000 1.5431 -18.9105 5.8052 1.8820 0.0000 -0.0000 23.2103 5.9893 -1.7278 14.6886 0.0000 -0.0000 -18.4990 23.7685 -2.2626 4.9664 -0.0000 0.0000 32.3442 -2.9968 -11.7330 23.5552 5.9525 -8.5565 -18.4168 50.3090 66.7524 102.9327 -0.0000 179.0540 128.8440 -74.9562 -52.1282 32.8623 0.0000 -24.3270 21.2102 17.3562 11.9472 -70.4796 -21.9642 -57.4199 -100.0138 -0.0000 65.2220 11.3808 23.8558 -26.4594 33.1476 -0.0000 26.2537 -3.8277 13.7228 17.1155
 2.8187 37.2068 0.2857 -23.2292 -10.3910 -13.1376 -56.2647 -2.2864 -46.2923 125.1133 -0.0000 -0.0000 2.2208 -18.6605 6.2429 2.1255 0.0000 -0.0000 23.2970 5.9627 -1.7240 14.6718 0.0000 0.0000 -18.4805 23.7555 -2.2742 4.8692 -0.0000 0.0000 32.3909 -3.0592 -11.9187 23.4912 5.9754 -8.5257 -18.5175 50.4684 66.8748 102.9051 -0.0000 179.0942 129.0737 -75.0368 -51.8898 32.8623 0.0000 -24.3270 21.1673 17.3196 12.0472 -70.5751 -21.9621 -57.4083 -99.8932 -0.0000 65.2224 11.3986 23.7548 -26.5876 33.1476 -0.0000 26.2537 -3.8152 13.7384 17.1680
 2.7965 37.2098 0.2800 -23.2655 -10.3434 -13.1053 -56.1761 -2.3465 -46.1688 125.5558 -0.0000 0.0000 3.0738 -18.3436 6.6307 2.1463 -0.0000 0.0000 23.3438 5.8105 -1.7231 14.6492 0.0000 0.0000 -18.4653 23.8579 -2.2578 4.9680 0.0000 -0.0000 32.4064 -3.1454 -12.1008 23.4287 6.0236 -8.4781 -18.5864 50.6087 66.9792 102.8951 -0.0000 179.1645 129.1099 -75.0876 -51.8474 32.8623 0.0000 -24.3270 21.1689 17.2975 12.1159 -70.7124 -21.9799 -57.3947 -99.7927 -0.0000 65.2977 11.3541 23.7275 -26.5204 33.1476 -0.0000 26.2537 -3.7485 13.6029 17.1580
 2.7739 37.2132 0.2757 -23.2974 -10.2788 -13.0973 -56.0793 -2.4264 -46.0427 126.1063 -0.0000 0.0000 4.0570 -17.9187 7.1298 2.1027 0.0000 -0.0000 23.3725 5.6242 -1.6980 14.6588 -0.0000 0.0000 -18.4418 23.9781 -2.1551 4.7607 -0.0000 0.0000 32.4128 -3.2500 -12.2218 23.3660 6.0539 -8.4601 -18.6783 50.7701 67.1185 102.8951 -0.0000 179.2268 129.1147 -75.1372 -51.8362 32.8623 0.0000 -24.3270 21.1383 17.2594 12.1734 -70.7782 -21.9599 -57.3767 -99.7028 -0.0000 65.3294 11.3406 23.7199 -26.4994 33.1476 -0.0000 26.2537 -3.7175 13.5962 17.1482
 2.7470 37.2185 0.2682 -23.3273 -10.2143 -13.1360 -55.9884 -2.5631 -45.8458 126.7396 -0.0000 0.0000 5.1400 -17.4719 7.6030 1.9916 0.0000 -0.0000 23.3729 5.4333 -1.6259 14.7070 0.0000 0.0000 -18.4349 24.1181 -2.0262 4.5813 -0.0000 -0.0000 32.4396 -3.3148 -12.2886 23.2814 6.0523 -8.4476 -18.7747 50.9333 67.2815 102.8951 -0.0000 179.2113 129.3122 -75.1691 -51.6360 32.8623 0.0000 -24.3270 21.0919 17.2015 12.2425 -70.8313 -21.9180 -57.3746 -99.6223 -0.0000 65.3825 11.3350 23.6932 -26.5120 33.1476 -0.0000 26.2537 -3.7727 13.6978 17.2155
 2.7078 37.2202 0.2571 -23.2555 -10.3149 -13.1779 -56.0444 -2.6191 -45.4641 127.4789 0.0000 -0.0000 6.3213 -16.9569 8.2001 1.7555 -0.0000 0.0000 23.2542 5.4146 -1.5659 14.7576 -0.0000 -0.0000 -18.4453 24.2101 -1.8781 4.4001 0.0000 -0.0000 32.2602 -3.2570 -12.4699 23.3071 6.0542 -8.3823 -18.9022 51.1385 67.4234 102.8985 -0.0000 179.2783 129.6489 -75.2577 -51.2903 32.8623 0.0000 -24.3270 21.0845 17.2274 12.3537 -70.8812 -21.9173 -57.4057 -99.5426 -0.0000 65.4058 11.2549 23.7251 -26.3169 33.1476 -0.0000 26.2537 -3.7256 13.6957 17.2923
 2.6693 37.2222 0.2404 -23.1344 -10.4318 -13.2201 -56.1695 -2.6826 -45.0184 128.2374 -0.0000 0.0000 7.6347 -16.3995 8.8059 1.3972 0.0000 -0.0000 23.0488 5.3663 -1.5018 14.8678 0.0000 -0.0000 -18.4491 24.3354 -1.7580 4.1074 0.0000 -0.0000 32.0315 -3.1803 -12.6502 23.3832 6.0529 -8.3182 -19.0705 51.2940 67.5786 102.8918 -0.0000 179.3121 129.8160 -75.2234 -51.1287 32.8623 0.0000 -24.3270 21.1310 17.2689 12.4473 -70.9817 -21.9380 -57.4480 -99.4595 -0.0000 65.4279 11.1964 23.6908 -26.2263 33.1476 -0.0000 26.2537 -3.6679 13.5622 17.3217
 2.6351 37.2276 0.2218 -23.0654 -10.4786 -13.3154 -56.2082 -2.8014 -44.5832 128.9711 0.0000 -0.0000 9.0622 -15.8028 9.5675 1.6062 0.0000 -0.0000 22.8820 5.2004 -1.3856 15.0000 -0.0000 0.0000 -18.4712 24.4938 -1.5491 3.8024 0.0000 -0.0000 31.9267 -3.1378 -12.7163 23.3662 6.0515 -8.3163 -19.2097 51.3983 67.7828 102.8872 -0.0000 179.3229 129.9806 -75.1861 -50.9700 32.8623 0.0000 -24.3270 21.1254 17.3021 12.5253 -71.0589 -21.9692 -57.4978 -99.3894 -0.0000 65.4118 11.1689 23.6826 -26.1766 33.1476 -0.0000 26.2537 -3.7217 13.5252 17.3900
 2.5961 37.2340 0.1986 -23.0132 -10.5273 -13.4926 -56.2543 -3.0255 -44.0734 129.6814 0.0000 -0.0000 10.5071 -15.1846 10.1300 1.4278 -0.0000 0.0000 22.7210 5.0282 -1.2065 15.1394 -0.0000 0.0000 -18.5330 24.6998 -1.2103 3.4724 -0.0000 0.0000 31.8801 -3.0525 -12.6835 23.3358 6.0311 -8.3698 -19.3726 51.4996 68.0224 102.8933 -0.0000 179.3293 130.3320 -75.4406 -50.5881 32.8623 0.0000 -24.3270 21.0782 17.3361 12.5892 -71.1079 -22.0081 -57.5292 -99.3491 -0.0000 65.2936 11.1837 23.6186 -26.2653 33.1476 -0.0000 26.2537 -3.8991 13.6079 17.4676
 2.5586 37.2406 0.1759 -22.9674 -10.6515 -13.6690 -56.3194 -3.1557 -43.4756 130.3570 0.0000 0.0000 11.9826 -14.6432 11.1740 2.6922 -0.0000 0.0000 22.5747 4.8752 -1.0637 15.2457 -0.0000 -0.0000 -18.5947 24.9487 -0.9003 3.2007 -0.0000 0.0000 31.8155 -2.8755 -12.6985 23.2982 6.0158 -8.4241 -19.4878 51.5324 68.2772 102.9094 -0.0000 179.2047 130.4912 -75.3997 -50.4350 32.8623 0.0000 -24.3270 21.0159 17.3532 12.6978 -71.1229 -22.0552 -57.5793 -99.3522 -0.0000 65.1942 11.2594 23.5351 -26.4994 33.1476 -0.0000 26.2537 -4.0200 13.5256 17.5017
